<?xml version="1.0" standalone="no"?>
<!DOCTYPE svg PUBLIC "-//W3C//DTD SVG 20010904//EN"
 "http://www.w3.org/TR/2001/REC-SVG-20010904/DTD/svg10.dtd">
<svg version="1.0" xmlns="http://www.w3.org/2000/svg"
 width="964.000000pt" height="964.000000pt" viewBox="0 0 964.000000 964.000000"
 preserveAspectRatio="xMidYMid meet">
<metadata>
Created by potrace 1.16, written by Peter Selinger 2001-2019
</metadata>
<g transform="translate(0.000000,964.000000) scale(0.100000,-0.100000)"
fill="#42b883" stroke="none">
<path d="M3997 8827 c2 -4 -8 -5 -23 -1 -21 5 -25 4 -19 -6 6 -10 4 -12 -9 -7
-11 4 -25 -1 -39 -16 -49 -51 -75 -85 -70 -91 4 -3 1 -6 -6 -6 -7 0 -9 -4 -6
-10 3 -5 2 -10 -2 -10 -5 0 -9 -10 -10 -22 -1 -11 -8 -25 -15 -29 -7 -5 -9 -9
-4 -9 5 0 3 -7 -4 -15 -6 -8 -9 -19 -6 -24 4 -5 2 -13 -4 -16 -6 -4 -8 -15 -5
-26 4 -11 2 -19 -5 -19 -6 0 -8 -10 -4 -26 5 -21 4 -25 -6 -19 -10 6 -12 -1
-6 -34 5 -31 3 -41 -5 -35 -9 5 -10 -6 -5 -45 5 -36 4 -51 -4 -46 -16 10 -12
-81 4 -94 11 -10 194 -12 758 -9 409 2 723 0 698 -4 -33 -5 -24 -6 30 -3 87 3
120 -6 115 -32 -1 -10 -8 -17 -14 -15 -6 1 -14 -5 -17 -13 -4 -8 -12 -15 -19
-15 -7 0 -16 -7 -19 -16 -3 -8 -10 -13 -15 -10 -5 3 -12 -1 -15 -10 -3 -8 -10
-13 -15 -10 -5 3 -11 -1 -15 -9 -3 -8 -12 -12 -20 -9 -9 3 -21 -5 -31 -20 -10
-14 -23 -26 -30 -26 -7 0 -16 -7 -19 -16 -3 -8 -10 -12 -16 -9 -5 3 -10 1 -10
-4 0 -6 -7 -11 -15 -11 -8 0 -15 -4 -15 -10 0 -5 -4 -9 -9 -7 -5 1 -17 -7 -26
-18 -9 -11 -14 -13 -10 -5 4 8 -3 4 -14 -10 -11 -14 -21 -20 -21 -15 0 6 -5 2
-11 -8 -6 -9 -14 -15 -19 -12 -4 3 -10 -2 -14 -10 -3 -8 -12 -15 -21 -15 -8 0
-15 -5 -15 -11 0 -5 -4 -8 -9 -4 -6 3 -26 -10 -45 -30 -19 -19 -39 -35 -43
-35 -4 0 -23 -17 -42 -37 -18 -21 -28 -29 -20 -18 7 11 -19 -11 -58 -50 -38
-38 -71 -74 -73 -80 -2 -5 -13 -18 -24 -28 -12 -10 -14 -15 -6 -11 8 4 -2 -9
-23 -29 -21 -20 -36 -41 -32 -47 3 -5 1 -10 -4 -10 -6 0 -10 -3 -9 -7 3 -13
-25 -63 -34 -63 -5 0 -6 -4 -3 -10 3 -5 2 -10 -3 -10 -9 0 -46 -78 -43 -92 0
-5 -4 -8 -10 -8 -5 0 -7 -4 -4 -10 3 -5 2 -10 -4 -10 -6 0 -7 -7 -4 -17 5 -12
3 -14 -7 -8 -10 6 -12 4 -7 -8 3 -10 2 -17 -4 -17 -6 0 -9 -6 -7 -12 3 -7 -2
-19 -9 -27 -8 -7 -12 -20 -9 -27 3 -8 1 -14 -5 -14 -6 0 -9 -6 -6 -14 3 -8 3
-17 -1 -20 -7 -7 -8 -14 -17 -66 -3 -19 -9 -42 -12 -50 -3 -8 -7 -22 -9 -30
-1 -8 -5 -27 -8 -42 -6 -29 -14 -67 -21 -103 -17 -87 -34 -218 -38 -295 -1
-25 -6 -51 -10 -58 -5 -7 -6 -38 -2 -70 5 -43 4 -53 -5 -42 -8 11 -10 -6 -6
-70 4 -61 3 -79 -4 -65 -7 14 -9 -2 -6 -60 4 -56 2 -74 -5 -60 -6 14 -8 -3 -5
-60 3 -55 2 -75 -5 -65 -8 11 -9 -7 -5 -57 2 -40 1 -75 -4 -78 -5 -3 -9 -31
-8 -63 2 -57 -8 -226 -17 -292 -8 -59 -17 -183 -16 -212 1 -16 -3 -28 -8 -28
-5 0 -7 -9 -4 -20 3 -12 0 -20 -6 -20 -7 0 -9 -4 -6 -10 3 -5 1 -10 -6 -10 -7
0 -9 -3 -6 -6 3 -4 -16 -24 -43 -46 -28 -22 -50 -45 -50 -51 0 -5 -3 -8 -6 -4
-3 3 -15 -3 -27 -13 -11 -11 -24 -17 -29 -14 -4 3 -8 1 -8 -5 0 -6 -11 -13
-25 -17 -14 -3 -25 -10 -25 -16 0 -5 -4 -6 -10 -3 -5 3 -10 1 -10 -5 0 -6 -5
-8 -10 -5 -6 3 -13 -1 -16 -9 -3 -9 -10 -13 -15 -10 -5 3 -12 -2 -15 -10 -3
-9 -10 -13 -15 -10 -5 3 -9 0 -9 -6 0 -6 -4 -8 -10 -5 -5 3 -10 1 -10 -4 0 -6
-7 -11 -15 -11 -8 0 -15 -5 -15 -11 0 -5 -4 -8 -9 -4 -6 3 -14 -3 -20 -12 -6
-10 -11 -14 -11 -9 0 6 -7 1 -16 -10 -8 -10 -13 -12 -9 -4 4 10 2 9 -8 -2 -8
-10 -17 -15 -20 -11 -4 3 -7 1 -7 -6 0 -7 -5 -9 -10 -6 -6 3 -13 -1 -16 -9 -3
-9 -10 -14 -14 -11 -4 3 -11 -2 -14 -11 -3 -8 -10 -13 -15 -10 -5 3 -12 -1
-15 -10 -3 -8 -10 -12 -16 -9 -5 3 -10 1 -10 -5 0 -6 -4 -9 -9 -5 -6 3 -14 -3
-20 -12 -6 -10 -11 -14 -11 -9 0 6 -7 1 -16 -10 -8 -10 -13 -12 -9 -4 4 10 2
9 -8 -2 -8 -10 -17 -15 -20 -11 -4 3 -9 -2 -13 -11 -3 -9 -11 -16 -16 -16 -6
0 -17 -8 -25 -17 -10 -12 -12 -13 -8 -3 4 8 -1 6 -9 -4 -9 -11 -16 -16 -16
-11 0 5 -7 0 -16 -11 -8 -10 -13 -12 -9 -4 4 10 2 9 -8 -2 -8 -10 -17 -15 -20
-12 -3 3 -10 -4 -17 -15 -6 -12 -15 -19 -19 -16 -5 3 -12 -2 -15 -11 -3 -8
-10 -12 -16 -9 -5 3 -10 1 -10 -5 0 -6 -4 -9 -8 -6 -11 7 -82 -41 -82 -55 0
-6 -5 -7 -10 -4 -6 3 -13 -1 -16 -9 -3 -9 -10 -14 -14 -11 -5 3 -12 0 -17 -7
-14 -22 -49 -47 -39 -28 4 8 -1 5 -12 -7 -11 -12 -22 -19 -26 -16 -3 3 -8 -2
-12 -11 -3 -9 -10 -13 -15 -10 -5 3 -12 -2 -15 -10 -3 -9 -10 -13 -15 -10 -5
3 -12 -2 -15 -10 -3 -9 -13 -16 -21 -16 -7 0 -26 -12 -40 -27 -15 -16 -23 -21
-19 -13 4 8 -2 4 -13 -9 -12 -13 -21 -19 -21 -15 0 5 -5 1 -11 -9 -6 -9 -14
-15 -20 -12 -5 4 -9 1 -9 -4 0 -6 -6 -11 -14 -11 -7 0 -21 -10 -30 -22 -9 -13
-14 -16 -11 -8 4 8 -3 4 -15 -10 -12 -14 -19 -18 -15 -10 4 8 -3 4 -15 -10
-12 -14 -19 -18 -15 -10 4 8 -2 5 -13 -7 -11 -13 -25 -23 -31 -23 -7 0 -14 -7
-17 -15 -4 -8 -11 -15 -16 -15 -6 0 -17 -8 -25 -17 -10 -12 -12 -13 -8 -3 4 8
-1 6 -10 -5 -9 -11 -21 -19 -26 -17 -5 1 -12 -5 -15 -13 -4 -8 -12 -15 -20
-15 -7 0 -18 -9 -24 -21 -7 -11 -14 -18 -17 -15 -3 3 -12 -2 -20 -12 -10 -11
-12 -12 -8 -2 4 8 -1 6 -10 -5 -9 -11 -21 -19 -26 -18 -5 2 -16 -8 -25 -22 -9
-14 -20 -22 -25 -19 -5 3 -12 -2 -15 -10 -3 -9 -10 -14 -15 -11 -4 3 -13 -4
-19 -15 -6 -11 -15 -18 -20 -15 -5 3 -14 -4 -20 -15 -6 -11 -15 -18 -20 -15
-5 3 -14 -4 -20 -15 -6 -11 -15 -18 -21 -15 -5 4 -12 -1 -15 -9 -3 -9 -12 -16
-20 -16 -8 0 -14 -5 -14 -11 0 -5 -4 -7 -10 -4 -5 3 -10 2 -10 -4 0 -6 -7 -7
-17 -4 -9 4 -14 2 -10 -3 4 -6 -5 -9 -22 -6 -16 2 -32 -1 -35 -7 -9 -15 -86
-14 -86 0 0 8 -31 10 -105 7 -58 -3 -105 -1 -105 4 0 4 -52 8 -115 8 -66 0
-115 -4 -115 -10 0 -5 -21 -7 -50 -3 -34 4 -50 2 -50 -5 0 -7 -11 -9 -30 -5
-19 3 -30 1 -30 -6 0 -7 -9 -9 -24 -5 -13 3 -27 1 -31 -6 -4 -6 -15 -8 -26 -5
-11 4 -19 2 -19 -5 0 -7 -8 -10 -20 -7 -11 3 -22 1 -25 -3 -5 -8 -105 -36
-117 -32 -5 1 -8 -2 -8 -8 0 -5 -6 -7 -14 -4 -7 3 -20 -2 -29 -10 -8 -8 -17
-12 -21 -9 -3 4 -6 1 -6 -6 0 -7 -4 -9 -10 -6 -5 3 -10 2 -10 -3 0 -5 -15 -16
-32 -23 -18 -7 -38 -18 -45 -24 -36 -31 -43 -35 -43 -29 0 3 -32 -27 -71 -67
-40 -41 -66 -66 -59 -56 24 33 2 17 -26 -20 -15 -20 -21 -33 -13 -29 8 5 1 -4
-16 -19 -16 -14 -23 -24 -15 -20 8 4 6 -2 -6 -12 -11 -10 -21 -22 -22 -28 -1
-5 -9 -18 -17 -28 -8 -9 -15 -21 -15 -26 0 -5 -7 -12 -16 -15 -9 -4 -14 -9
-11 -12 3 -3 -3 -14 -14 -25 -11 -11 -17 -24 -14 -29 4 -6 1 -10 -5 -10 -6 0
-9 -4 -6 -9 3 -5 -1 -12 -10 -15 -9 -4 -14 -13 -10 -21 3 -8 1 -15 -5 -15 -6
0 -7 -4 -4 -10 3 -5 1 -10 -4 -10 -6 0 -10 -4 -8 -8 3 -11 -45 -115 -58 -124
-5 -4 -9 -10 -7 -13 1 -3 1 -7 1 -10 -1 -3 -3 -9 -4 -15 -1 -5 -3 -11 -5 -12
-1 -2 -3 -10 -5 -18 -2 -8 -6 -22 -9 -31 -13 -31 31 -56 65 -36 18 10 27 12
23 4 -3 -6 11 6 31 28 20 22 33 33 30 25 -4 -8 10 3 30 25 21 22 32 31 25 20
-7 -11 5 -2 25 20 21 22 35 33 31 25 -4 -8 7 1 24 20 17 19 29 28 25 20 -4 -8
8 1 25 20 17 19 28 28 24 21 -4 -9 6 -5 24 8 18 12 32 27 32 32 0 6 4 8 9 5 5
-3 12 1 15 10 3 8 10 13 15 10 5 -3 12 1 15 10 3 8 10 12 16 9 5 -3 10 -2 10
3 0 5 14 12 31 16 20 4 28 10 23 18 -5 8 -2 9 9 5 10 -3 17 -2 17 4 0 6 5 7
10 4 6 -3 10 -2 10 4 0 6 7 8 15 5 8 -4 15 -1 15 6 0 6 5 8 10 5 6 -3 10 -2
10 4 0 6 7 8 15 5 8 -4 15 -1 15 7 0 7 3 9 7 6 3 -4 12 -2 20 4 7 6 13 8 13 4
0 -4 6 -3 13 3 16 13 72 24 117 23 27 -1 32 1 20 10 -11 8 -6 9 19 4 24 -5 31
-4 26 4 -5 8 1 10 19 5 15 -3 26 -2 26 4 0 6 9 8 20 5 12 -3 20 0 20 7 0 7 7
10 16 6 9 -3 21 -3 27 1 11 7 34 12 67 14 8 1 20 6 27 11 7 5 17 7 23 3 6 -4
17 -1 25 5 8 6 19 9 25 5 6 -4 17 -2 23 4 7 5 22 10 32 10 11 1 36 4 55 7 19
3 52 6 73 5 21 0 36 3 33 8 -3 4 6 6 21 3 19 -4 24 -2 18 8 -5 9 -2 10 14 5
12 -4 21 -2 21 4 0 6 7 8 15 5 8 -4 15 -1 15 5 0 6 7 8 15 5 8 -4 15 -1 15 6
0 6 4 9 9 5 5 -3 12 -1 16 5 4 6 11 8 16 5 5 -4 9 -1 9 5 0 6 4 9 9 5 5 -3 12
-1 16 5 4 6 11 8 16 5 5 -4 9 -1 9 6 0 7 3 10 6 6 4 -3 13 1 21 9 8 8 19 11
25 8 6 -4 17 2 25 12 8 10 16 18 18 17 13 -7 25 0 65 37 24 22 51 40 61 40 9
0 27 12 39 28 12 15 19 20 15 12 -4 -8 6 -1 20 15 15 17 24 23 20 15 -3 -8 3
-5 14 8 44 51 61 28 64 -85 2 -61 -1 -99 -7 -96 -5 4 -7 -16 -3 -51 4 -39 2
-54 -5 -50 -8 5 -9 -9 -5 -45 4 -33 3 -49 -4 -46 -6 4 -9 -9 -8 -32 2 -44 -9
-110 -22 -135 -5 -10 -7 -18 -3 -18 3 0 1 -6 -5 -13 -6 -8 -8 -16 -6 -19 3 -3
0 -18 -6 -34 -7 -16 -12 -32 -11 -36 1 -5 -3 -8 -9 -8 -5 0 -8 -4 -4 -9 3 -5
1 -12 -5 -16 -6 -4 -8 -11 -5 -16 4 -5 1 -9 -5 -9 -6 0 -8 -4 -5 -10 3 -5 1
-10 -5 -10 -6 0 -8 -4 -5 -10 3 -5 1 -10 -5 -10 -6 0 -8 -4 -5 -10 3 -5 1 -10
-5 -10 -6 0 -8 -4 -5 -10 3 -5 2 -10 -4 -10 -6 0 -7 -7 -4 -17 4 -10 2 -14 -4
-10 -6 4 -16 -6 -22 -23 -6 -17 -16 -43 -22 -59 -6 -16 -19 -38 -30 -50 -11
-12 -16 -21 -12 -21 4 0 -2 -7 -13 -16 -10 -8 -12 -13 -4 -9 8 4 6 -1 -4 -9
-11 -9 -16 -16 -10 -16 5 0 1 -5 -9 -11 -9 -6 -15 -14 -12 -20 4 -5 0 -12 -9
-15 -8 -3 -22 -17 -31 -31 -11 -16 -12 -22 -4 -17 15 9 -30 -57 -46 -68 -5 -4
-10 -11 -10 -17 0 -5 -11 -19 -25 -31 -14 -12 -18 -18 -10 -14 8 4 -11 -16
-42 -45 -32 -29 -58 -58 -58 -65 0 -7 -9 -22 -19 -33 -11 -12 -17 -23 -14 -26
3 -3 2 -11 -2 -17 -10 -17 -14 -110 -4 -116 4 -2 6 -11 2 -19 -3 -8 -1 -15 4
-15 11 0 49 -118 45 -137 -1 -6 2 -14 7 -17 5 -3 7 -16 3 -28 -3 -14 -1 -19 6
-14 8 5 10 -2 5 -25 -4 -19 -2 -30 3 -26 6 3 10 -24 9 -69 0 -41 -4 -74 -9
-74 -5 0 -6 -18 -3 -40 3 -23 1 -38 -4 -34 -5 3 -9 -12 -8 -33 0 -21 -2 -49
-4 -63 -2 -14 -8 -46 -12 -73 -4 -26 -11 -50 -16 -53 -5 -3 -7 -9 -4 -14 3 -5
1 -11 -5 -15 -6 -4 -8 -10 -5 -15 3 -5 -2 -21 -11 -35 -9 -14 -13 -25 -10 -25
4 0 -6 -17 -21 -37 -15 -20 -21 -33 -13 -29 8 5 1 -4 -16 -20 -16 -16 -23 -24
-14 -19 9 6 6 1 -5 -10 -39 -37 -53 -92 -33 -128 7 -12 12 -25 13 -29 0 -3 4
-10 9 -15 5 -5 6 -2 2 7 -4 9 -1 8 7 -3 9 -10 21 -15 31 -11 9 3 16 1 16 -5 0
-6 7 -11 16 -11 9 0 12 5 8 12 -5 8 0 9 14 6 13 -4 22 -1 22 5 0 6 3 8 6 4 4
-3 15 4 26 16 11 12 16 15 12 7 -7 -13 -5 -13 9 -1 9 7 14 17 11 22 -3 5 0 9
6 9 6 0 9 4 6 9 -3 5 1 12 10 15 9 4 14 13 10 21 -3 8 -1 15 5 15 6 0 8 7 5
16 -4 10 -2 13 6 8 8 -5 9 -2 5 9 -4 10 -2 17 4 17 6 0 9 7 5 15 -3 8 -1 15 5
15 6 0 8 7 5 16 -4 10 -2 13 6 8 7 -5 9 0 6 14 -4 14 -2 20 5 15 6 -4 8 2 5
15 -4 12 -2 22 4 22 5 0 7 9 3 19 -3 11 -1 22 4 25 6 4 8 13 5 21 -3 8 -2 20
2 27 4 7 9 19 10 28 2 8 5 29 9 45 9 49 19 137 31 275 8 95 12 134 19 190 4
25 7 55 7 68 0 12 5 22 10 22 6 0 7 11 4 25 -4 15 -2 25 4 25 7 0 9 8 5 21 -5
16 -4 19 6 14 9 -6 11 -2 7 13 -4 14 -2 20 5 15 6 -4 8 2 5 15 -4 12 -3 20 2
17 10 -6 22 24 14 36 -3 5 0 9 5 9 6 0 10 3 9 8 -4 12 24 72 34 72 5 0 6 5 3
10 -3 6 -1 10 5 10 6 0 8 5 5 10 -3 6 -1 10 5 10 6 0 9 4 5 9 -3 6 4 15 16 21
11 7 18 14 15 17 -3 3 6 15 20 26 14 10 23 25 20 32 -3 8 3 19 12 27 16 12 16
11 2 -7 -14 -19 -14 -19 3 -6 9 7 17 19 17 25 0 14 219 242 230 239 12 -3 91
68 85 77 -6 10 24 36 53 45 12 3 20 10 18 14 -3 4 14 25 37 47 l42 39 -30 -36
c-17 -19 7 2 53 49 45 46 82 81 82 77 0 -5 9 0 20 10 11 10 17 22 13 28 -3 5
-1 7 5 3 6 -3 20 7 32 24 12 16 28 30 35 30 8 0 21 10 29 22 30 42 100 37 104
-7 1 -20 -1 -42 -5 -48 -4 -6 -8 -18 -9 -27 -1 -8 -5 -26 -9 -40 -3 -14 -8
-36 -11 -49 -3 -13 -9 -32 -15 -43 -5 -10 -7 -18 -3 -18 3 0 1 -7 -6 -15 -7
-8 -9 -15 -4 -15 4 0 3 -5 -3 -11 -6 -6 -9 -18 -6 -25 3 -8 0 -14 -6 -14 -6 0
-8 -7 -4 -17 5 -12 3 -14 -7 -8 -10 6 -12 4 -7 -8 4 -10 2 -17 -4 -17 -6 0 -9
-7 -5 -15 3 -8 1 -15 -5 -15 -6 0 -9 -7 -5 -15 3 -8 1 -15 -5 -15 -6 0 -8 -7
-5 -16 4 -10 2 -13 -6 -8 -8 5 -9 2 -5 -9 3 -10 2 -17 -4 -17 -5 0 -9 -6 -7
-12 3 -18 -24 -88 -35 -88 -4 0 -5 -4 -2 -10 3 -5 1 -10 -5 -10 -6 0 -8 -4 -5
-10 3 -5 1 -10 -5 -10 -6 0 -8 -4 -5 -10 3 -5 1 -10 -5 -10 -6 0 -9 -4 -6 -9
3 -5 -1 -12 -10 -15 -8 -3 -12 -10 -9 -16 3 -5 1 -10 -5 -10 -6 0 -8 -4 -5
-10 3 -5 1 -10 -5 -10 -6 0 -8 -4 -5 -10 3 -5 2 -10 -4 -10 -6 0 -8 -7 -5 -15
4 -8 2 -15 -4 -15 -6 0 -8 -10 -4 -22 3 -11 1 -19 -4 -15 -5 3 -9 -29 -10 -74
0 -50 3 -75 9 -67 5 8 6 3 2 -15 -4 -21 -3 -27 6 -21 9 5 10 2 6 -9 -3 -10 -2
-17 4 -17 6 0 7 -4 4 -10 -6 -10 10 -47 31 -68 7 -7 11 -19 8 -27 -4 -8 -1
-15 6 -15 6 0 8 -5 5 -10 -4 -6 -2 -17 4 -24 6 -7 10 -26 10 -42 -1 -16 -1
-65 -1 -109 0 -123 -10 -248 -22 -277 -4 -9 -5 -22 -1 -28 4 -6 2 -17 -4 -24
-7 -8 -11 -18 -10 -22 1 -5 0 -12 -1 -16 -1 -5 -3 -11 -4 -15 -1 -5 -7 -18
-14 -31 -7 -12 -10 -28 -6 -34 4 -6 3 -8 -3 -5 -6 4 -15 -5 -22 -19 -9 -20 -9
-24 1 -19 7 4 5 0 -4 -8 -10 -8 -15 -17 -11 -20 3 -4 1 -7 -5 -7 -6 0 -11 -8
-12 -17 0 -10 -2 -37 -4 -60 -4 -37 35 -108 51 -95 2 1 4 2 6 1 20 -5 98 -2
100 4 1 4 10 9 19 10 21 4 49 27 43 37 -3 4 2 11 11 14 9 4 14 13 10 21 -3 8
-1 15 5 15 6 0 8 7 5 16 -4 10 -2 13 6 8 8 -5 9 1 4 20 -5 20 -4 26 5 20 8 -5
10 1 7 19 -3 16 -1 24 5 20 7 -4 8 9 3 38 -5 32 -3 40 4 29 8 -11 9 1 6 45 -4
44 -3 53 4 35 6 -17 8 11 5 90 -2 71 -1 102 4 80 5 -22 8 34 8 145 -1 131 -2
158 -7 100 -6 -75 -6 -73 -7 40 0 82 2 107 7 80 7 -33 8 -27 8 35 0 41 2 82 4
90 12 42 20 60 29 60 5 0 8 4 7 8 -2 4 14 23 35 42 41 36 71 85 62 100 -3 6
-1 10 5 10 7 0 10 7 6 15 -3 8 -2 15 3 15 4 0 8 14 8 31 0 17 6 35 14 40 8 5
10 9 5 9 -5 0 -3 6 3 13 6 8 8 17 4 20 -3 4 -1 7 6 7 7 0 9 4 6 10 -3 5 -1 10
5 10 6 0 8 4 5 10 -3 5 -1 10 5 10 6 0 8 5 5 10 -3 6 -1 10 6 10 7 0 10 3 6 6
-3 3 3 14 14 25 11 11 17 24 14 29 -4 6 -1 10 5 10 6 0 8 4 5 10 -3 5 -2 10 4
10 6 0 15 10 22 21 9 17 8 20 -3 14 -7 -4 -2 3 12 14 14 11 21 21 17 21 -5 0
-1 7 7 16 9 8 16 22 16 30 0 8 5 14 10 14 6 0 10 7 10 15 0 8 4 15 9 15 5 0
20 14 32 32 13 17 16 28 9 23 -8 -5 2 8 23 28 20 21 38 42 38 47 1 6 2 15 3
21 0 6 9 16 19 23 9 7 17 17 17 22 0 4 10 17 23 29 13 11 16 16 7 11 -8 -5 3
8 25 28 22 21 33 34 25 31 -8 -4 1 7 20 23 19 17 35 37 35 44 1 7 6 12 12 11
7 -2 28 16 49 40 20 23 33 36 29 28 -5 -9 2 -8 25 5 18 10 34 25 37 31 3 7 9
10 14 7 5 -3 9 0 9 6 0 6 5 8 10 5 6 -4 17 -1 25 5 8 7 15 9 15 5 0 -4 7 -2
15 5 8 6 19 9 25 5 6 -4 17 -2 23 4 7 5 22 10 32 11 11 0 38 3 60 6 22 4 83 6
135 6 62 0 86 2 70 8 -14 4 19 6 80 3 76 -3 101 -2 90 6 -11 8 11 9 78 4 64
-4 92 -3 92 5 0 7 22 9 69 5 38 -3 78 -2 88 2 10 5 59 10 108 11 50 2 124 5
165 8 191 12 330 14 330 4 0 -6 9 -8 20 -5 11 3 23 1 26 -4 3 -5 10 -7 15 -4
5 4 9 1 9 -5 0 -6 5 -8 10 -5 6 3 10 1 10 -5 0 -6 5 -8 10 -5 6 3 10 1 10 -5
0 -6 5 -8 10 -5 6 3 10 1 10 -5 0 -6 5 -8 10 -5 6 3 13 -1 16 -9 3 -9 9 -14
14 -11 4 2 18 -6 31 -18 13 -12 27 -21 31 -20 5 2 8 -2 8 -8 0 -5 4 -8 9 -5 5
3 12 -1 15 -10 4 -9 13 -14 21 -10 8 3 15 1 15 -5 0 -6 7 -8 16 -5 8 3 12 2 9
-4 -3 -5 4 -9 17 -9 13 1 34 -2 48 -5 100 -25 255 -25 440 1 25 3 68 5 95 4
38 -1 46 1 35 9 -11 8 -4 9 29 4 32 -4 42 -3 36 6 -5 8 3 9 30 4 28 -5 36 -4
31 5 -6 8 -1 10 17 6 14 -4 28 -2 31 3 3 6 15 8 26 5 11 -3 20 -1 20 5 0 6 8
11 18 11 21 0 67 8 67 11 0 1 9 3 20 5 11 3 34 7 50 10 17 4 39 7 50 8 11 1
25 5 31 10 13 7 26 8 119 8 33 0 52 3 43 7 -10 4 41 7 111 7 71 0 124 -4 118
-8 -7 -5 7 -6 30 -4 24 3 45 1 48 -4 3 -4 12 -6 20 -2 8 3 15 0 15 -6 0 -6 7
-8 15 -5 8 4 15 1 15 -6 0 -6 4 -9 9 -6 5 3 12 -1 15 -10 3 -8 10 -13 14 -10
5 3 20 -6 33 -21 13 -14 17 -23 9 -19 -13 7 -13 6 0 -6 8 -7 16 -20 18 -28 2
-8 7 -16 12 -18 5 -2 6 -10 3 -18 -3 -8 -1 -14 5 -14 5 0 7 -11 4 -25 -2 -15
0 -25 7 -25 7 0 11 -25 11 -71 0 -49 -3 -68 -11 -63 -8 5 -10 -4 -7 -30 2 -20
0 -36 -5 -36 -5 0 -7 -9 -4 -20 3 -11 1 -20 -5 -20 -6 0 -8 -9 -5 -20 3 -13 1
-18 -6 -13 -6 4 -8 -2 -5 -15 4 -14 2 -20 -5 -15 -6 4 -8 0 -4 -10 3 -10 2
-17 -3 -17 -5 0 -7 -6 -4 -14 3 -7 -2 -20 -10 -29 -8 -8 -12 -17 -9 -21 4 -3
1 -6 -5 -6 -7 0 -12 -6 -12 -14 0 -7 -17 -31 -37 -51 -21 -21 -31 -34 -23 -30
8 5 4 -4 -9 -18 -26 -29 -37 -35 -25 -15 4 7 -3 3 -15 -9 -21 -22 -33 -27 -58
-24 -7 1 -13 -3 -13 -8 0 -6 -7 -8 -15 -5 -8 4 -15 1 -15 -5 0 -6 -6 -8 -14
-5 -25 9 -67 -38 -73 -82 -6 -50 28 -92 90 -109 4 -2 8 -3 10 -5 12 -10 96 -3
152 13 14 4 85 77 85 88 0 4 9 13 21 19 11 7 18 14 15 17 -3 3 2 12 12 20 11
10 12 12 2 8 -10 -4 -9 -2 2 8 10 8 15 17 11 20 -3 4 -1 7 6 7 7 0 9 5 6 10
-3 6 -1 10 5 10 6 0 8 5 5 10 -3 6 -2 10 4 10 13 0 44 58 37 69 -3 4 1 16 8
27 8 10 12 24 9 31 -3 7 -1 13 4 13 5 0 9 8 10 18 1 9 7 31 14 47 7 17 13 33
14 38 2 4 4 9 5 12 1 3 4 10 5 15 1 6 4 12 5 15 1 3 3 8 4 13 1 4 7 17 14 28
6 12 8 24 5 28 -3 3 -1 6 6 6 8 0 11 7 7 15 -3 8 -1 15 4 15 5 0 6 7 3 17 -5
11 -3 14 6 8 10 -6 11 -2 6 15 -5 14 -3 20 3 16 11 -7 35 51 26 65 -3 5 0 9 6
9 6 0 9 4 5 9 -3 5 -1 12 5 16 6 4 8 11 5 16 -4 5 -1 9 4 9 6 0 10 3 9 8 -4
17 14 72 24 72 6 0 8 3 5 7 -4 3 -2 12 4 20 6 7 8 13 4 13 -4 0 -2 7 5 15 7 8
9 15 5 15 -4 0 -2 7 5 15 6 8 9 19 5 25 -3 5 -2 10 2 10 5 0 8 27 8 60 0 33
-3 60 -8 60 -4 0 -7 3 -5 8 2 4 -11 21 -29 39 -18 17 -33 29 -33 27 0 -3 -10
1 -22 8 -26 14 -36 16 -98 24 -73 9 -142 14 -194 14 -27 0 -55 5 -62 11 -7 6
-27 7 -48 3 -25 -4 -36 -3 -36 6 0 9 -11 10 -36 5 -27 -5 -34 -3 -28 6 5 8 0
10 -19 7 -16 -3 -24 -1 -20 5 4 6 -2 8 -15 5 -12 -4 -20 -2 -16 3 3 5 -2 9
-11 9 -9 0 -15 6 -12 13 2 6 12 11 22 9 10 -2 14 1 10 8 -5 7 2 9 21 4 19 -5
25 -4 20 4 -5 8 2 10 25 5 25 -5 30 -3 24 7 -6 10 0 11 30 6 28 -6 35 -4 29 5
-5 9 0 10 20 5 16 -4 26 -2 26 5 0 6 6 9 14 6 8 -3 17 -3 20 1 4 3 12 7 19 8
7 2 22 5 35 8 12 3 32 9 45 12 12 3 27 6 34 8 7 1 15 5 19 9 4 4 18 4 30 1 16
-4 24 -2 24 6 0 7 7 10 16 6 25 -10 89 4 72 16 -8 6 -1 7 21 3 24 -5 31 -4 26
4 -5 8 1 10 19 5 17 -4 26 -2 26 5 0 7 9 9 25 5 16 -4 25 -2 25 6 0 7 7 10 16
6 9 -3 21 -3 27 1 15 10 127 11 127 1 0 -4 7 -5 15 -2 8 4 15 1 15 -6 0 -6 5
-8 10 -5 6 3 10 2 10 -4 0 -14 58 -43 70 -36 6 3 10 1 10 -5 0 -6 5 -8 10 -5
6 3 10 1 10 -5 0 -6 5 -8 10 -5 6 3 10 1 10 -6 0 -7 3 -10 6 -6 3 3 14 -2 25
-11 11 -9 23 -17 27 -17 12 -1 80 -74 74 -80 -3 -3 0 -5 7 -5 7 0 9 -5 6 -10
-3 -6 -3 -10 2 -10 13 0 3 -268 -11 -302 -4 -9 -5 -21 -2 -27 4 -5 2 -13 -4
-16 -6 -4 -8 -15 -5 -26 4 -11 2 -19 -5 -19 -7 0 -10 -7 -6 -15 3 -8 0 -15 -5
-15 -6 0 -9 -9 -6 -20 3 -11 1 -20 -5 -20 -6 0 -8 -7 -4 -15 3 -8 1 -15 -5
-15 -6 0 -8 -9 -4 -21 5 -16 4 -19 -6 -14 -9 6 -11 3 -6 -8 4 -10 1 -17 -5
-17 -6 0 -9 -3 -5 -6 10 -10 -19 -59 -55 -95 -18 -18 -24 -26 -13 -19 11 8 8
1 -9 -17 -16 -18 -32 -31 -36 -30 -10 3 -70 -72 -70 -87 0 -7 11 -27 25 -46
14 -19 25 -30 25 -24 0 5 4 3 9 -5 10 -15 151 -25 151 -10 0 4 7 6 15 3 8 -4
15 -1 15 6 0 6 5 8 10 5 6 -3 10 -1 10 6 0 7 3 9 7 6 3 -4 12 1 20 11 9 10 12
11 7 2 -5 -10 -1 -9 14 4 12 10 19 23 16 27 -3 5 2 12 10 15 9 3 13 10 10 15
-3 5 0 9 6 9 6 0 9 4 5 9 -3 5 -1 12 5 16 6 4 8 10 5 15 -3 5 -1 11 4 15 6 3
8 12 5 19 -3 8 -1 17 4 20 6 3 8 15 5 26 -3 12 0 20 7 20 8 0 10 9 6 26 -4 15
-2 32 5 40 6 7 9 20 6 29 -4 8 -1 17 4 21 6 3 8 19 5 35 -3 15 -1 31 5 35 6 3
8 19 5 35 -3 18 -1 29 6 29 7 0 9 15 5 45 -5 30 -3 45 5 45 8 0 9 23 5 78 -5
55 -4 73 4 62 7 -11 9 19 5 105 -3 74 -1 108 4 90 5 -19 7 24 5 115 -2 95 -1
124 4 85 6 -45 8 -20 9 105 2 162 -11 230 -44 230 -4 0 -3 -6 2 -13 5 -7 1 -4
-8 6 -45 49 -231 62 -443 31 -22 -3 -43 -8 -48 -11 -4 -2 -28 -5 -52 -5 -25 0
-45 -3 -45 -7 0 -5 -12 -6 -26 -3 -17 3 -25 1 -21 -5 4 -6 -4 -8 -20 -5 -18 3
-24 1 -19 -7 6 -9 0 -10 -20 -5 -21 5 -25 4 -19 -6 6 -10 2 -11 -19 -6 -17 4
-26 2 -26 -5 0 -6 -9 -9 -20 -6 -11 3 -22 1 -25 -3 -3 -5 -13 -9 -23 -8 -9 0
-26 -3 -37 -6 -88 -25 -178 -43 -195 -39 -11 3 -20 0 -20 -6 0 -6 -12 -8 -32
-4 -24 5 -29 3 -23 -7 6 -9 0 -10 -25 -5 -25 5 -31 4 -25 -5 6 -10 -1 -11 -29
-6 -21 4 -36 3 -36 -3 0 -5 -15 -10 -32 -10 -31 0 -53 -2 -138 -15 -244 -36
-427 -44 -455 -21 -11 9 -14 14 -8 10 9 -4 11 -1 7 9 -3 9 -10 14 -14 11 -5
-3 -6 5 -2 17 3 15 2 19 -7 14 -9 -6 -10 0 -6 21 5 22 4 25 -5 13 -9 -12 -10
-8 -5 19 5 25 4 32 -5 26 -9 -5 -10 -2 -5 14 4 13 2 21 -5 21 -7 0 -10 7 -7
15 4 8 2 17 -4 20 -5 4 -7 10 -4 15 3 5 1 11 -5 15 -6 4 -8 10 -5 15 3 5 1 11
-5 15 -6 4 -8 10 -5 15 3 5 1 11 -5 15 -6 4 -8 11 -5 16 4 5 1 9 -5 9 -7 0
-10 6 -7 14 3 8 1 16 -4 18 -5 2 -11 13 -12 26 0 12 -5 22 -10 22 -4 0 -5 5
-2 10 3 6 2 10 -2 10 -9 0 -15 26 -17 77 0 17 -5 29 -10 26 -5 -4 -6 -1 -3 4
4 6 52 9 124 7 77 -1 102 0 73 5 -25 4 51 6 170 5 123 -2 200 0 180 5 -20 4
57 6 175 4 139 -2 203 0 190 6 -13 7 28 8 123 4 103 -4 142 -3 142 5 0 9 25
10 89 5 61 -4 90 -2 95 6 5 7 29 9 76 5 38 -4 77 -3 87 2 10 4 45 9 78 10 58
3 123 8 235 20 30 3 75 7 100 8 25 2 60 7 78 11 19 4 60 7 93 7 32 0 56 4 53
9 -3 5 9 6 27 2 24 -4 30 -3 25 6 -6 8 -1 10 18 5 15 -3 26 -2 26 4 0 5 11 7
25 4 14 -2 25 0 25 6 0 6 9 8 20 5 11 -3 20 -1 20 5 0 6 10 8 22 4 16 -4 19
-2 13 8 -6 10 -3 12 13 8 12 -4 22 -2 22 4 0 6 7 8 15 5 8 -4 17 -2 20 4 4 5
10 7 15 4 5 -3 11 -1 15 5 4 6 10 8 15 5 5 -3 11 -1 15 5 4 6 11 8 16 5 5 -4
9 -2 9 4 0 6 6 8 14 5 8 -3 28 9 46 26 17 17 35 28 40 25 4 -3 11 2 14 11 3 8
11 12 17 8 7 -4 9 -3 5 4 -3 6 0 14 8 19 8 4 15 10 15 13 0 3 3 13 7 24 4 11
2 21 -7 27 -8 4 -13 11 -11 14 6 13 1 26 -8 20 -5 -3 -15 3 -22 15 -7 11 -18
20 -25 20 -7 0 -13 5 -13 11 0 5 -4 7 -10 4 -5 -3 -10 -1 -10 5 0 6 -4 9 -9 6
-5 -3 -12 1 -15 10 -4 9 -13 14 -22 10 -8 -3 -13 -2 -10 3 7 11 -22 23 -36 14
-7 -4 -8 -1 -4 6 5 8 3 11 -5 10 -22 -4 -69 12 -69 23 0 5 -4 6 -10 3 -5 -3
-10 -1 -10 5 0 7 -7 10 -15 6 -8 -3 -15 -1 -15 5 0 6 -4 7 -10 4 -5 -3 -10 -1
-10 6 0 7 -3 10 -6 6 -4 -3 -13 1 -21 9 -9 8 -22 13 -29 10 -8 -3 -14 -1 -14
5 0 6 -4 7 -10 4 -5 -3 -10 -1 -10 5 0 7 -7 9 -16 6 -9 -4 -13 -2 -8 5 4 8 -1
9 -15 4 -13 -4 -21 -2 -21 5 0 6 -4 9 -9 5 -5 -3 -12 -1 -16 5 -4 6 -11 8 -16
5 -5 -4 -9 -1 -9 6 0 7 -3 9 -6 6 -4 -3 -16 -1 -28 5 -11 7 -24 11 -28 10 -5
-1 -8 3 -8 9 0 5 -4 7 -10 4 -5 -3 -10 -1 -10 5 0 6 -4 8 -10 5 -5 -3 -10 -1
-10 5 0 7 -7 9 -16 6 -9 -4 -13 -2 -8 5 4 8 -1 9 -16 4 -17 -5 -21 -4 -15 6 6
9 3 11 -8 6 -10 -4 -17 -2 -17 4 0 6 -7 9 -15 5 -8 -3 -15 -1 -15 4 0 6 -3 9
-7 8 -5 -1 -23 6 -40 15 -18 10 -33 15 -33 11 0 -4 -6 -1 -13 5 -8 6 -17 8
-20 4 -4 -3 -7 0 -7 7 0 7 -3 11 -6 8 -3 -4 -15 3 -26 14 -11 11 -26 17 -34
14 -9 -3 -12 -1 -9 4 3 6 3 10 -2 11 -29 3 -48 9 -51 18 -2 6 -10 11 -18 11
-8 0 -14 5 -14 11 0 5 -4 8 -9 4 -6 -3 -15 4 -21 15 -6 11 -16 17 -22 14 -7
-4 -8 -3 -4 4 3 6 -3 16 -15 22 -17 10 -20 9 -14 -2 4 -7 -10 5 -30 27 -20 22
-33 33 -29 25 4 -8 -7 -2 -24 14 -17 16 -29 32 -27 36 2 4 -8 18 -23 31 l-27
24 20 -25 c18 -24 18 -24 -7 1 -14 15 -29 25 -32 22 -3 -4 -6 -2 -6 3 0 36
-91 -3 -162 -70 -27 -24 -48 -42 -48 -39 0 2 -7 -3 -16 -11 -15 -16 -310 -25
-503 -17 -45 2 -62 0 -57 -8 5 -8 -4 -10 -33 -5 -26 4 -41 3 -41 -4 0 -7 -13
-9 -35 -5 -23 4 -35 2 -35 -6 0 -7 -9 -9 -25 -5 -16 4 -25 2 -25 -6 0 -8 -10
-9 -30 -5 -20 4 -30 3 -30 -5 0 -8 -9 -10 -25 -6 -15 4 -25 2 -25 -5 0 -6 -10
-9 -22 -8 -13 1 -30 -1 -38 -4 -31 -12 -176 -40 -197 -39 -13 1 -23 -2 -23 -7
0 -5 -10 -7 -22 -3 -15 3 -19 2 -14 -7 6 -9 0 -10 -20 -5 -20 5 -25 4 -19 -6
5 -9 2 -10 -14 -5 -13 4 -21 2 -21 -5 0 -7 -8 -9 -20 -5 -12 4 -20 2 -20 -5 0
-7 -7 -10 -15 -7 -8 4 -17 2 -21 -4 -3 -6 -12 -8 -19 -5 -7 2 -16 2 -20 -2 -4
-4 -10 -7 -13 -7 -4 -1 -32 -9 -61 -19 -30 -11 -68 -19 -83 -18 -17 0 -26 -3
-22 -10 4 -6 -1 -8 -15 -3 -13 4 -21 2 -21 -5 0 -7 -8 -9 -20 -5 -12 4 -20 2
-20 -5 0 -8 -9 -10 -25 -6 -14 4 -25 3 -25 -2 0 -4 -29 -7 -65 -7 -36 0 -65 4
-65 9 0 4 -7 5 -16 2 -10 -4 -13 -2 -8 6 5 7 0 9 -14 6 -12 -4 -20 -3 -17 2 6
10 -24 22 -36 14 -5 -3 -9 0 -9 5 0 6 -5 11 -11 11 -6 0 -20 10 -31 23 -11 12
-16 16 -13 9 4 -8 -13 7 -39 32 -25 25 -52 46 -60 46 -8 0 -28 17 -43 37 -15
20 -48 55 -73 77 -66 61 -149 142 -121 120 16 -12 11 -2 -14 29 -37 45 -62 67
-34 30 7 -10 -6 0 -28 21 -23 21 -41 42 -40 45 1 4 -12 20 -29 36 -16 17 -23
26 -14 20 9 -5 0 5 -19 24 -20 19 -29 31 -21 27 8 -4 -1 7 -20 24 -19 17 -28
29 -20 25 8 -4 3 5 -12 19 -16 14 -28 30 -28 36 0 5 -4 10 -10 10 -5 0 -10 5
-10 11 0 7 -8 18 -17 26 -12 10 -13 12 -3 8 8 -4 6 1 -4 9 -11 9 -16 16 -10
16 5 0 -2 10 -16 21 -14 11 -18 18 -10 14 8 -4 6 1 -4 9 -11 9 -16 16 -11 16
5 0 0 7 -11 16 -10 8 -12 13 -4 9 10 -4 9 -2 -2 8 -10 8 -15 17 -11 20 3 4 1
7 -6 7 -7 0 -10 4 -7 8 3 5 -3 18 -14 29 -10 12 -16 24 -13 27 4 3 1 6 -6 6
-7 0 -9 5 -6 10 3 6 2 10 -3 10 -6 0 -8 10 -4 22 3 11 1 19 -4 16 -5 -4 -7 15
-6 43 2 27 8 49 14 49 5 0 7 4 4 9 -4 5 3 7 14 4 11 -3 20 -1 20 4 0 6 12 8
26 5 19 -3 25 -1 20 6 -5 8 2 10 24 6 16 -4 30 -2 30 3 0 5 24 10 53 11 28 1
99 4 156 8 73 4 112 2 127 -7 13 -6 30 -9 38 -6 9 4 16 2 16 -4 0 -6 8 -8 17
-5 10 4 14 4 10 0 -7 -7 33 -41 44 -37 4 1 15 -7 24 -17 10 -11 15 -20 11 -20
-3 0 19 -26 51 -57 32 -32 61 -57 66 -55 4 1 10 -5 13 -13 3 -8 10 -12 15 -9
5 3 9 0 9 -6 0 -6 4 -9 9 -5 5 3 12 1 16 -5 8 -13 55 -13 55 0 0 5 7 6 17 3
10 -4 14 -2 10 4 -4 6 0 14 8 17 11 4 14 13 9 32 -5 19 -4 25 5 20 8 -5 11 9
11 49 0 39 -3 54 -11 49 -8 -5 -9 6 -5 37 6 34 5 40 -4 29 -9 -12 -10 -8 -5
18 4 21 3 32 -5 32 -7 0 -9 8 -5 20 4 12 2 20 -5 20 -7 0 -10 7 -6 15 3 8 1
15 -5 15 -6 0 -7 4 -4 10 3 5 0 20 -7 32 -7 13 -11 26 -10 31 1 4 -3 7 -9 7
-5 0 -8 4 -4 9 3 5 1 12 -5 16 -6 4 -8 11 -5 16 4 5 1 9 -5 9 -6 0 -8 5 -5 10
3 6 1 10 -5 10 -6 0 -8 5 -5 10 3 6 1 10 -5 10 -6 0 -8 5 -5 10 3 6 2 10 -4
10 -6 0 -8 7 -5 15 3 8 -6 26 -23 41 -15 15 -22 24 -14 19 9 -5 8 2 -5 25 -10
18 -25 34 -31 37 -7 3 -11 9 -8 14 3 4 -4 13 -15 19 -11 6 -20 17 -20 26 0 8
-7 17 -15 20 -8 4 -15 11 -15 17 0 6 -10 20 -23 32 -13 11 -17 16 -10 11 30
-20 8 5 -72 81 -47 45 -83 76 -79 70 3 -7 -2 -3 -11 8 -9 11 -21 19 -26 17 -5
-1 -9 3 -9 9 0 5 -4 7 -10 4 -5 -3 -10 -1 -10 5 0 7 -7 9 -16 6 -8 -3 -13 -2
-10 3 3 4 -48 8 -114 9 -67 0 -118 -4 -114 -9 3 -5 -9 -6 -26 -3 -19 4 -30 2
-30 -4 0 -8 -11 -9 -32 -5 -23 4 -29 3 -24 -6 6 -8 1 -10 -18 -5 -17 4 -26 2
-26 -6 0 -8 -9 -10 -25 -6 -14 4 -25 2 -25 -3 0 -6 -17 -10 -37 -11 -21 0 -47
0 -58 -1 -35 -1 -60 6 -68 19 -4 6 -15 12 -23 12 -8 0 -12 5 -9 10 3 6 1 10
-4 10 -14 0 -9 34 8 54 7 9 10 16 5 16 -4 0 1 7 12 15 10 8 16 15 11 15 -4 0
7 14 25 31 18 18 24 25 13 18 -18 -13 -19 -13 -6 3 7 10 17 16 21 13 5 -3 27
16 50 42 22 26 49 48 58 49 9 2 31 19 48 38 17 20 36 36 43 36 6 0 11 5 11 10
0 6 9 10 20 10 10 0 36 17 57 37 20 21 34 31 29 23 -4 -8 0 -6 9 5 9 11 21 19
26 18 5 -2 9 2 9 8 0 5 5 7 10 4 6 -3 10 -1 10 4 0 6 9 11 19 11 11 0 34 15
52 33 18 17 29 25 25 17 -4 -9 -2 -8 7 2 8 10 17 15 20 11 4 -3 7 -1 7 6 0 7
5 9 10 6 6 -3 10 -1 10 5 0 6 5 8 10 5 6 -3 10 -2 10 4 0 6 18 15 41 21 22 6
43 18 46 25 3 8 9 12 14 9 5 -3 9 0 9 6 0 6 5 8 10 5 6 -3 10 -1 10 5 0 6 5 8
10 5 6 -3 10 -1 10 5 0 6 5 8 10 5 6 -3 10 -1 10 6 0 7 3 10 6 6 4 -3 13 1 21
9 9 8 28 18 44 21 16 3 26 9 23 14 -3 5 2 6 10 3 9 -3 16 -1 16 6 0 6 5 8 10
5 6 -3 10 -1 10 5 0 6 5 8 10 5 6 -3 10 -2 10 4 0 6 7 7 17 4 12 -5 14 -3 8 7
-5 9 -4 11 4 6 7 -5 29 3 51 19 21 14 45 28 54 29 8 1 18 5 21 8 4 3 25 4 48
2 32 -3 37 -2 22 5 -15 7 -3 10 45 9 49 0 59 -2 40 -8 -18 -6 -5 -8 45 -8 39
1 88 -2 110 -6 22 -4 51 -9 65 -11 14 -2 41 -7 60 -10 19 -4 46 -9 60 -11 14
-2 41 -6 60 -9 19 -3 45 -5 58 -5 12 0 22 -5 22 -11 0 -7 11 -8 31 -4 23 5 30
4 24 -5 -5 -8 3 -10 32 -5 30 5 35 4 23 -5 -12 -9 -7 -10 23 -5 29 5 37 3 32
-6 -6 -9 2 -10 30 -5 25 5 35 4 30 -3 -4 -7 6 -11 27 -10 18 1 51 -1 73 -5 22
-4 54 -9 70 -12 17 -3 41 -7 55 -10 63 -12 87 -15 117 -15 18 1 35 -4 38 -9 3
-6 17 -7 31 -4 15 4 24 2 24 -6 0 -9 11 -10 35 -6 24 5 35 3 35 -5 0 -8 12
-10 35 -6 24 4 33 2 29 -5 -5 -7 5 -9 31 -4 27 5 35 4 30 -5 -6 -8 1 -10 23
-7 17 2 29 1 26 -4 -3 -4 17 -8 43 -7 26 0 64 -3 83 -6 34 -6 53 -9 130 -20
19 -3 52 -5 72 -5 20 0 39 -4 43 -10 4 -6 23 -7 46 -4 28 5 39 3 39 -6 0 -9
13 -11 49 -6 30 4 52 2 56 -4 9 -14 145 -13 145 1 0 6 7 9 15 5 8 -3 15 -1 15
5 0 6 3 8 8 6 9 -5 42 30 34 37 -3 3 0 6 6 6 16 0 15 35 -2 68 -15 27 -45 58
-58 57 -4 0 -14 9 -22 20 -9 11 -16 16 -16 12 0 -5 -7 -1 -16 8 -9 9 -23 14
-31 11 -9 -4 -11 -2 -7 6 5 8 2 9 -9 5 -10 -4 -17 -2 -17 4 0 6 -7 9 -15 5 -8
-3 -15 -2 -15 3 0 5 -18 9 -40 9 -22 0 -45 4 -51 7 -6 4 -25 9 -42 11 -51 6
-100 13 -132 19 -46 8 -107 16 -140 19 -16 1 -38 6 -48 10 -9 5 -28 5 -42 2
-16 -4 -25 -2 -25 5 0 8 -12 10 -35 6 -21 -4 -35 -2 -35 5 0 6 -13 8 -36 3
-27 -5 -34 -3 -29 6 6 9 -4 10 -41 5 -35 -5 -45 -4 -34 4 11 7 4 10 -30 8 -47
-1 -170 11 -183 19 -4 2 -26 6 -50 9 -23 2 -55 7 -72 10 -61 11 -91 15 -110
17 -11 1 -25 6 -32 10 -7 4 -24 5 -39 1 -20 -5 -25 -4 -19 6 6 9 -2 11 -36 6
-34 -6 -41 -5 -29 4 12 9 5 10 -30 6 -34 -5 -41 -4 -30 5 11 8 3 9 -33 5 -32
-4 -46 -2 -42 4 4 7 -6 10 -27 9 -38 -1 -104 7 -162 22 -23 5 -45 11 -51 12
-5 1 -16 6 -22 10 -7 5 -17 6 -22 2 -5 -3 -13 0 -16 6 -4 5 -13 8 -21 5 -8 -3
-14 -1 -14 5 0 6 -9 8 -20 4 -11 -4 -20 -2 -20 4 0 6 -7 7 -17 4 -12 -5 -14
-3 -8 7 6 10 4 12 -8 7 -10 -3 -17 -2 -17 4 0 6 -4 7 -10 4 -5 -3 -10 -1 -10
5 0 6 -4 9 -9 6 -5 -3 -16 6 -25 19 -9 14 -21 23 -27 20 -5 -4 -8 -2 -7 4 2 6
-10 22 -27 36 -16 15 -23 23 -15 19 8 -4 4 5 -9 19 -13 15 -28 24 -32 21 -5
-3 -9 -1 -9 4 0 6 -9 8 -20 5 -11 -3 -20 0 -20 6 0 13 -32 15 -46 2 -14 -15
-118 -25 -234 -24 -136 2 -140 2 -140 15 0 5 -7 8 -15 4 -8 -3 -15 -1 -15 5 0
6 -7 9 -15 5 -8 -3 -15 -1 -15 5 0 6 -7 9 -15 5 -8 -3 -15 -1 -15 5 0 6 -7 9
-15 5 -8 -3 -15 -1 -15 5 0 6 -7 8 -16 5 -10 -4 -13 -2 -8 6 5 7 0 9 -14 6
-12 -4 -22 -2 -22 4 0 5 -6 8 -12 5 -7 -2 -26 1 -43 8 -16 6 -35 10 -42 8 -6
-2 -14 0 -17 6 -4 6 -13 8 -21 4 -8 -3 -15 0 -15 6 0 6 -6 8 -14 5 -8 -3 -17
-1 -20 5 -4 6 -13 8 -21 4 -8 -3 -15 0 -15 7 0 7 -7 10 -15 7 -8 -4 -17 -2
-20 3 -3 5 -12 7 -20 3 -8 -3 -15 0 -15 7 0 7 -7 10 -15 6 -8 -3 -15 0 -15 5
0 6 -9 9 -20 6 -12 -3 -18 -1 -14 5 5 7 -2 9 -20 4 -18 -4 -25 -3 -21 3 3 6
-6 10 -22 10 -36 -1 -114 11 -127 19 -10 6 -34 11 -66 13 -8 1 -20 6 -27 11
-7 5 -17 7 -23 3 -5 -3 -16 -3 -22 2 -13 8 -43 13 -90 15 -16 0 -28 5 -28 11
0 5 -13 7 -30 4 -19 -4 -30 -2 -30 4 0 7 -13 9 -36 4 -27 -5 -34 -3 -29 6 6 9
-7 10 -51 5 -37 -3 -51 -2 -39 3 12 5 -27 8 -107 7 -69 0 -124 -5 -121 -9z
m743 -1939 c0 -5 5 -7 12 -5 7 1 12 -4 13 -11 0 -7 6 -17 14 -21 7 -5 10 -14
7 -20 -4 -6 -3 -11 2 -11 4 0 9 -27 9 -60 0 -33 -4 -60 -9 -60 -5 0 -6 -4 -3
-10 3 -5 1 -10 -6 -10 -7 0 -9 -3 -6 -7 4 -3 0 -14 -8 -23 -20 -22 -101 -18
-124 5 -9 10 -10 15 -4 11 11 -6 -13 50 -27 64 -10 10 -7 79 3 73 6 -4 8 2 5
15 -4 12 -3 20 2 17 4 -3 11 2 14 11 4 10 2 13 -7 9 -6 -4 -1 4 13 17 24 22
100 34 100 16z m208 -1258 c19 -12 31 -16 27 -10 -3 6 0 7 9 4 9 -3 16 -10 16
-16 0 -5 4 -7 9 -4 5 3 12 -1 15 -10 3 -8 10 -12 16 -9 5 3 10 1 10 -5 0 -6 5
-8 10 -5 6 3 10 2 10 -3 0 -11 61 -55 77 -55 7 0 13 -4 13 -9 0 -4 32 -24 70
-43 39 -19 70 -40 70 -46 0 -5 5 -7 10 -4 6 3 13 -1 16 -9 3 -9 28 -31 54 -49
50 -33 166 -136 140 -123 -13 7 -13 6 0 -6 30 -27 12 -101 -25 -104 -21 -1
-65 -16 -65 -23 0 -3 -14 -7 -31 -8 -17 -1 -37 -7 -44 -13 -6 -5 -14 -8 -17
-5 -2 2 -31 0 -64 -6 -72 -12 -193 -12 -254 0 -25 5 -47 8 -49 6 -2 -2 -8 1
-15 6 -6 5 -32 23 -59 40 -26 17 -44 35 -41 40 3 5 1 9 -3 9 -49 0 -54 393 -6
473 8 14 69 7 101 -13z m2565 -365 c25 -24 31 -37 28 -57 0 -5 3 -8 7 -8 5 0
23 -20 41 -45 18 -25 38 -45 46 -45 8 0 18 -6 22 -14 4 -8 17 -16 28 -18 11
-1 25 -10 32 -18 7 -8 13 -10 13 -5 0 6 5 3 10 -5 14 -22 13 -110 -1 -90 -8
12 -9 9 -5 -12 4 -16 3 -28 -1 -28 -5 0 -17 -13 -28 -29 -10 -16 -23 -27 -27
-25 -4 3 -8 0 -8 -7 0 -6 -8 -9 -20 -6 -11 3 -20 1 -20 -4 0 -5 -160 -9 -381
-9 -209 0 -378 3 -376 8 3 4 -15 5 -39 3 -24 -1 -44 1 -44 7 0 5 -11 7 -25 4
-50 -9 -58 4 -30 45 14 21 29 48 35 60 5 13 32 37 60 54 27 17 50 36 50 42 0
5 3 8 6 4 4 -3 21 5 39 18 17 14 37 25 43 25 7 0 12 5 12 11 0 5 5 7 10 4 6
-3 10 -1 10 5 0 6 5 8 10 5 6 -3 10 -1 10 6 0 7 3 10 6 6 4 -3 13 0 20 8 8 8
20 12 27 9 18 -6 99 31 89 41 -4 5 -2 5 5 2 6 -4 37 7 69 23 32 17 63 29 71
26 7 -3 13 -1 13 4 0 5 7 7 15 4 8 -4 15 -1 15 6 0 6 4 9 8 6 5 -3 22 -1 38 4
54 16 88 11 117 -15z"/>
</g>
</svg>
